<svg width="660" height="660" viewBox="0 0 660 660" fill="none" xmlns="http://www.w3.org/2000/svg">
    <path d="M118.256 414.935C87.0427 378.643 71.4363 360.497 65.308 340.37C59.1824 320.253 59.5549 298.716 66.3725 278.823C73.1932 258.92 89.4178 241.325 121.867 206.134L198.753 122.751C241.346 76.5595 262.642 53.4636 286.863 45.292C311.002 37.148 337.339 38.5239 360.498 49.139C383.735 59.7899 402.509 84.9792 440.057 135.358L539.1 268.246C568.436 307.607 583.104 327.288 587.741 348.229C592.376 369.156 590.163 391.018 581.431 410.592C572.692 430.179 554.378 446.522 517.752 479.208L442.305 546.535C401.969 582.531 381.801 600.529 359.631 606.801C337.499 613.062 313.884 611.502 292.768 602.384C271.615 593.251 253.99 572.757 218.738 531.769L118.256 414.935Z" fill="url(#paint0_linear)"/>
    <defs>
        <linearGradient id="paint0_linear" x1="275" y1="19.5" x2="390.5" y2="597" gradientUnits="userSpaceOnUse">
            <stop stop-color="#7A4DF8"/>
            <stop offset="0.195433" stop-color="#4D5EF8"/>
            <stop offset="1" stop-color="#2DF9EC"/>
        </linearGradient>
    </defs>
</svg>
